<svg width="27" height="30" viewBox="0 0 27 30" fill="none" xmlns="http://www.w3.org/2000/svg">
<rect width="24.001" height="24" rx="12" fill="#1F1D2B"/>
<path d="M17.4104 11.4071C17.4104 12.0753 17.257 12.6888 16.9503 13.2474C16.6436 13.7952 16.1725 14.2388 15.5372 14.5784C14.9018 14.918 14.1131 15.0878 13.171 15.0878H11.4293V19.2286H8.61945V7.69354H13.171C14.0912 7.69354 14.8689 7.85238 15.5043 8.17006C16.1397 8.48774 16.6162 8.92592 16.9339 9.48459C17.2515 10.0433 17.4104 10.6841 17.4104 11.4071ZM12.9574 12.8531C13.4942 12.8531 13.894 12.7271 14.1569 12.4752C14.4198 12.2232 14.5513 11.8672 14.5513 11.4071C14.5513 10.947 14.4198 10.591 14.1569 10.339C13.894 10.0871 13.4942 9.96111 12.9574 9.96111H11.4293V12.8531H12.9574Z" fill="white"/>
<path d="M17.4683 4.7713H8.61951V6.62769H17.4683V4.7713Z" fill="#E50913"/>
<g filter="url(#filter0_d_584_1347)">
<mask id="mask0_584_1347" style="mask-type:alpha" maskUnits="userSpaceOnUse" x="14" y="16" width="11" height="12">
<rect x="14.0001" y="16.4075" width="10.5958" height="10.5954" rx="5.2977" fill="#252525"/>
</mask>
<g mask="url(#mask0_584_1347)">
<rect x="14.0001" y="16.4075" width="10.5958" height="10.5954" rx="5.2977" fill="white"/>
<path d="M21.912 18.5211H16.7188V19.6105H21.912V18.5211Z" fill="#E50913"/>
</g>
</g>
<path d="M20.0263 25.0652C19.6296 25.0652 19.2764 24.9973 18.9667 24.8614C18.657 24.7256 18.4125 24.5409 18.2332 24.3072C18.0539 24.0681 17.9534 23.8019 17.9316 23.5085H19.309C19.3253 23.6661 19.3987 23.7938 19.5291 23.8916C19.6595 23.9894 19.8198 24.0383 20.01 24.0383C20.1838 24.0383 20.317 24.0057 20.4093 23.9405C20.5071 23.8698 20.556 23.7802 20.556 23.6715C20.556 23.5411 20.4881 23.446 20.3523 23.3862C20.2164 23.321 19.9964 23.2504 19.6921 23.1743C19.3661 23.0983 19.0944 23.0195 18.8771 22.938C18.6597 22.851 18.4723 22.7179 18.3147 22.5386C18.1571 22.3539 18.0783 22.1066 18.0783 21.7969C18.0783 21.5361 18.149 21.2998 18.2903 21.0879C18.437 20.8705 18.6489 20.6994 18.926 20.5744C19.2085 20.4494 19.5427 20.3869 19.9285 20.3869C20.499 20.3869 20.9473 20.5282 21.2733 20.8107C21.6047 21.0933 21.7949 21.4682 21.8438 21.9355H20.556C20.5343 21.7779 20.4637 21.6529 20.3441 21.5606C20.23 21.4682 20.0779 21.422 19.8877 21.422C19.7247 21.422 19.5997 21.4546 19.5128 21.5198C19.4259 21.5796 19.3824 21.6638 19.3824 21.7725C19.3824 21.9029 19.4503 22.0007 19.5862 22.0659C19.7274 22.1311 19.9448 22.1963 20.2382 22.2615C20.5751 22.3484 20.8495 22.4354 21.0614 22.5223C21.2733 22.6038 21.458 22.7396 21.6156 22.9298C21.7786 23.1146 21.8628 23.3645 21.8682 23.6797C21.8682 23.9459 21.7922 24.185 21.64 24.3969C21.4933 24.6034 21.2787 24.7664 20.9962 24.8859C20.719 25.0054 20.3958 25.0652 20.0263 25.0652Z" fill="black"/>
<defs>
<filter id="filter0_d_584_1347" x="12.5386" y="16.4075" width="13.5187" height="13.5183" filterUnits="userSpaceOnUse" color-interpolation-filters="sRGB">
<feFlood flood-opacity="0" result="BackgroundImageFix"/>
<feColorMatrix in="SourceAlpha" type="matrix" values="0 0 0 0 0 0 0 0 0 0 0 0 0 0 0 0 0 0 127 0" result="hardAlpha"/>
<feOffset dy="1.46143"/>
<feGaussianBlur stdDeviation="0.730717"/>
<feComposite in2="hardAlpha" operator="out"/>
<feColorMatrix type="matrix" values="0 0 0 0 0 0 0 0 0 0 0 0 0 0 0 0 0 0 0.25 0"/>
<feBlend mode="normal" in2="BackgroundImageFix" result="effect1_dropShadow_584_1347"/>
<feBlend mode="normal" in="SourceGraphic" in2="effect1_dropShadow_584_1347" result="shape"/>
</filter>
</defs>
</svg>
