<svg width="310" height="310" viewBox="0 0 310 310" fill="none" xmlns="http://www.w3.org/2000/svg">
<path d="M178.079 154.559L303.519 28.5591C310.238 21.8403 310.238 11.2001 303.519 5.0391C296.8 -1.6797 286.16 -1.6797 279.999 5.0391L154.559 131.039L28.5591 5.0391C21.8403 -1.6797 11.2001 -1.6797 5.0391 5.0391C-1.6797 11.7579 -1.6797 22.3981 5.0391 28.5591L130.479 154.559L5.0391 280.559C-1.6797 287.278 -1.6797 297.918 5.0391 304.079C8.3985 307.438 12.8789 309.118 16.8011 309.118C20.7233 309.118 25.1995 307.438 28.5631 304.079L154.563 178.079L280.563 304.079C283.923 307.438 288.403 309.118 292.325 309.118C296.247 309.118 300.724 307.438 304.087 304.079C310.806 297.36 310.806 286.72 304.087 280.559L178.079 154.559Z" fill="#B6B4C1"/>
</svg>
