<svg width="24" height="24" viewBox="0 0 24 24" fill="none" xmlns="http://www.w3.org/2000/svg">
<circle cx="12" cy="12" r="12" fill="white"/>
<path fill-rule="evenodd" clip-rule="evenodd" d="M8.20302 5.46983C8.13123 5.48189 7.85616 5.7165 7.85616 5.76568C7.85616 5.78445 7.84433 5.79981 7.82987 5.79981C7.81541 5.79981 7.80358 5.82372 7.80358 5.85294C7.80358 5.88215 7.79162 5.91657 7.77698 5.92943C7.75971 5.94461 7.7528 6.26436 7.75727 6.8406L7.76415 7.72839H9.3677L9.38192 6.76987H16.9858L16.9096 6.83383C16.8677 6.869 16.8076 6.91363 16.7761 6.93298C16.7447 6.95234 16.6425 7.0301 16.5492 7.10577C16.4558 7.18143 16.3336 7.27631 16.2778 7.3166C16.2219 7.3569 16.1341 7.42446 16.0827 7.46672C16.0312 7.50901 15.9129 7.60048 15.8198 7.66997C15.7266 7.73947 15.6327 7.81244 15.611 7.83207C15.5893 7.85172 15.5108 7.9118 15.4365 7.96554L15.3014 8.06329H10.0951C6.65256 8.06329 4.88327 8.07112 4.87252 8.08639C4.86358 8.09909 4.82962 8.10948 4.79707 8.10948C4.7645 8.10948 4.71492 8.12819 4.6869 8.15106C4.65885 8.17394 4.61634 8.19921 4.59242 8.20725C4.56847 8.21526 4.50933 8.27192 4.46098 8.3331L4.37305 8.44438L4.3654 13.1677C4.3612 15.7655 4.36477 17.9346 4.37339 17.988C4.38491 18.0595 4.42048 18.1158 4.50836 18.2016C4.57397 18.2657 4.64332 18.3182 4.66245 18.3182C4.68162 18.3182 4.7022 18.3312 4.70822 18.3471C4.71695 18.3701 5.86984 18.376 10.3557 18.376H15.9922L16.1106 18.3037C16.1758 18.2639 16.2767 18.1911 16.3349 18.142C16.393 18.0928 16.4817 18.0251 16.5319 17.9916C16.582 17.958 16.6768 17.8852 16.7424 17.8299C16.808 17.7745 16.9026 17.7018 16.9527 17.6682C17.0027 17.6346 17.0974 17.5619 17.163 17.5065C17.2286 17.4512 17.3232 17.3783 17.3733 17.3446C17.4233 17.3108 17.5064 17.2484 17.5578 17.206C17.6093 17.1635 17.7275 17.0719 17.8207 17.0024C17.9138 16.9329 18.0078 16.8601 18.0295 16.8407C18.0512 16.8213 18.1458 16.7482 18.2398 16.6784C18.3338 16.6086 18.4357 16.5306 18.4663 16.5052C18.4969 16.4797 18.5679 16.4258 18.624 16.3852C18.6802 16.3447 18.775 16.272 18.8348 16.2236C18.8945 16.1752 18.973 16.1148 19.0091 16.0894C19.1228 16.0093 19.3983 15.7947 19.5852 15.6406C19.764 15.4932 19.8433 15.3927 19.8433 15.3135C19.8433 15.2907 19.8551 15.2658 19.8696 15.2579C19.8841 15.2501 19.8959 15.1773 19.8959 15.0962C19.8959 15.0152 19.8841 14.9424 19.8696 14.9346C19.8551 14.9267 19.8433 14.8949 19.8433 14.8639C19.8433 14.8329 19.8315 14.8075 19.817 14.8075C19.8026 14.8075 19.7907 14.7925 19.7907 14.7741C19.7907 14.7265 19.5857 14.5438 19.4679 14.4864C19.4132 14.4598 19.3341 14.438 19.292 14.438C19.2499 14.438 19.2082 14.4276 19.1993 14.4149C19.1885 14.3996 17.521 14.3918 14.2819 14.3918H9.38084V12.0829C9.38084 9.81219 9.38 9.77367 9.32924 9.74981C9.2957 9.73403 9.01274 9.72768 8.52089 9.73168L7.76415 9.7378L7.75748 12.4851C7.75306 14.3011 7.75974 15.2402 7.77719 15.2555C7.7917 15.2683 7.80358 15.2958 7.80358 15.3167C7.80358 15.4329 7.99782 15.6262 8.20891 15.7201L8.33825 15.7776H12.6449C15.0136 15.7776 16.9517 15.7855 16.9517 15.7952C16.9517 15.8049 16.9193 15.8335 16.8797 15.8587C16.8067 15.9052 16.5773 16.0826 16.5049 16.1484C16.4831 16.1682 16.4382 16.2007 16.405 16.2206C16.3717 16.2406 16.2771 16.313 16.1947 16.3815C16.1122 16.4499 16.0198 16.5214 15.9894 16.5402C15.9589 16.559 15.8524 16.639 15.7528 16.7179C15.6531 16.7968 15.5124 16.9082 15.4401 16.9655L15.3087 17.0697L5.91088 17.071V9.44932L10.8201 9.44138C13.5202 9.43701 15.7738 9.42542 15.8281 9.41562C15.8825 9.40581 15.9334 9.38855 15.9414 9.37726C15.9493 9.36594 15.9788 9.3567 16.0069 9.3567C16.0349 9.3567 16.0579 9.34631 16.0579 9.33361C16.0579 9.3209 16.0731 9.31051 16.0916 9.31051C16.1101 9.31051 16.1845 9.26115 16.2569 9.2008C16.3294 9.14047 16.4295 9.06349 16.4795 9.02975C16.5296 8.996 16.6126 8.93364 16.664 8.89117C16.7155 8.84869 16.8338 8.75707 16.9269 8.68757C17.02 8.61807 17.114 8.54532 17.1357 8.52589C17.1574 8.50647 17.2521 8.43344 17.346 8.36359C17.44 8.29375 17.5419 8.2158 17.5725 8.19037C17.6032 8.16494 17.6741 8.11096 17.7303 8.07043C17.7864 8.02991 17.8814 7.95716 17.9415 7.90875C18.0015 7.86036 18.0961 7.78781 18.1518 7.74753C18.2074 7.70723 18.2946 7.6393 18.3456 7.59657C18.3965 7.55382 18.4651 7.50232 18.498 7.48211C18.5308 7.46187 18.6252 7.3893 18.7076 7.32082C18.7901 7.25234 18.8847 7.17959 18.9179 7.15915C18.9511 7.1387 19.0458 7.06595 19.1282 6.99747C19.2107 6.92899 19.3039 6.85711 19.3354 6.83773C19.3668 6.81838 19.4696 6.7395 19.5637 6.66247C19.7389 6.51904 19.8433 6.38695 19.8433 6.30861C19.8433 6.28434 19.8551 6.25805 19.8696 6.2502C19.9054 6.23073 19.9029 6.00182 19.8659 5.92216C19.7836 5.74487 19.7562 5.70368 19.6654 5.62144C19.4615 5.43655 20.0436 5.45299 13.8195 5.4565C10.7638 5.45824 8.23636 5.46424 8.20302 5.46983Z" fill="#EB5357"/>
</svg>
