<svg style="position: absolute; width: 0; height: 0; overflow: hidden;" version="1.1"
     xmlns="http://www.w3.org/2000/svg">
    <defs>
        <symbol id="icon-defi" viewBox="0 0 17 14">
            <path d="M15.99 13.374a.96.96 0 1 0 0-1.919H9.824a1.767 1.767 0 0 1-2.612.122L5.624 9.989l.452-.452 1.588 1.587a1.13 1.13 0 1 0 1.599-1.599L7.035 7.298H2.558v-.32H0v4.797h2.558v-.32h.64l3.198 1.92h9.594z" />
            <path d="M14.373 10.816a5.756 5.756 0 1 0-8.898-4.157H7.3l2.415 2.414a1.758 1.758 0 0 1 .45 1.743h4.207zM8.636 7.298V4.74l2.558-1.6 2.558 1.6v2.558l-2.558 1.6-2.558-1.6z" />
        </symbol>
        <symbol id="icon-staking" viewBox="0 0 17 16">
            <path d="M11.377 0a2.638 2.638 0 1 0-.01 5.277A2.638 2.638 0 0 0 11.376 0zM1.311 6.842H0v8.912h1.311V6.842zM6.165 7.336l.098.07c.13.098.244.179.357.25l.098.054c.173.105.372.16.574.162h.542c.139-.009.278-.009.417 0h.081a3.25 3.25 0 0 1 1.512.645 2.628 2.628 0 0 0-4.908-1.875c.075 0 .157.038.232.07.36.162.695.371.997.624z"/>
            <path d="M15.895 9.036a1.452 1.452 0 0 0-1.625-.07l-2.974 1.793h-6.42v-.542h4.978a2.28 2.28 0 0 0-.585-.758 2.167 2.167 0 0 0-1.083-.498 2.29 2.29 0 0 0-.341 0h-.542a2.2 2.2 0 0 1-1.084-.298 5.319 5.319 0 0 1-.617-.412 3.602 3.602 0 0 0-.83-.493 1.349 1.349 0 0 0-.54-.109H2.394v7.195h5.731a5.867 5.867 0 0 0 3.549-1.203l4.21-3.212a.845.845 0 0 0 .27-1.088.872.872 0 0 0-.26-.305z" />
        </symbol>
        <symbol id="icon-transactions" viewBox="0 0 15 13">
            <path d="M8.999 8.008l-.943-1.616L5.471 7.9 3.94 5.278 1.97 8.726 0 12.175l3.972-.018 3.972-.018-1.53-2.623 2.585-1.508z" />
            <path d="M5.987 6.12l-.919-1.63 2.608-1.47L6.184.374l7.943.08-2.02 3.42-2.021 3.419-1.492-2.645-2.607 1.47z" />
        </symbol>
        <symbol id="icon-more" viewBox="0 0 17 10">
            <path d="M12.455 0h-7.91A4.552 4.552 0 0 0 0 4.545a4.552 4.552 0 0 0 4.545 4.546h7.91A4.552 4.552 0 0 0 17 4.545 4.552 4.552 0 0 0 12.455 0zm-8.16 6.03a1.482 1.482 0 0 1-1.486-1.485c0-.823.663-1.485 1.486-1.485s1.485.662 1.485 1.485c0 .823-.662 1.486-1.485 1.486zm4.205 0a1.482 1.482 0 0 1-1.485-1.485c0-.823.662-1.485 1.485-1.485.823 0 1.485.662 1.485 1.485 0 .823-.662 1.486-1.485 1.486zm4.205 0a1.482 1.482 0 0 1-1.485-1.485c0-.823.662-1.485 1.485-1.485.823 0 1.486.662 1.486 1.485 0 .823-.663 1.486-1.486 1.486z" />
        </symbol>
        <symbol id="icon-right-arrow" viewBox="0 0 8 14">
            <path d="M8 6.84a1.177 1.177 0 0 1-.339.817l-5.648 5.65a1.178 1.178 0 0 1-1.67-1.663L5.16 6.827.343 2.009A1.178 1.178 0 0 1 2.013.347L7.66 5.996c.222.225.344.53.339.845z" />
        </symbol>
        <symbol id="icon-down-arrow" fill="none" viewBox="0 0 14 8">
            <path d="M1 1l6 6 6-6" stroke="#B6B4C1" stroke-width="2" stroke-linecap="round" stroke-linejoin="round"/>
        </symbol>
        <symbol id="icon-exchange-arrow" fill="none" viewBox="0 0 11 12">
            <path d="M5.064 0a.774.774 0 0 0-.774.774V9.26L1.358 6.115A.774.774 0 1 0 .228 7.17l4.27 4.583a.774.774 0 0 0 1.13 0L9.9 7.171A.774.774 0 0 0 8.77 6.115L5.838 9.261V.774A.774.774 0 0 0 5.064 0z" fill="#E50913"/>
        </symbol>
        <symbol id="icon-search" fill="none" viewBox="0 0 16 16">
            <path d="M14.5 14.5l-.413.412a.583.583 0 0 0 .826-.824l-.413.412zM9.633 9.63l.413-.413-.826.825.413-.412zM1.167 6.125H.582h.584zm4.958-4.958V.583v.584zm4.816 9.772l-.412.412.412-.412zm3.972 3.149l-4.867-4.872-.826.825 4.867 4.871.826-.824zM10.5 6.125c0 1.16-.461 2.273-1.282 3.094l.825.825a5.542 5.542 0 0 0 1.623-3.919H10.5zM9.218 9.219A4.375 4.375 0 0 1 6.125 10.5v1.167c1.47 0 2.88-.584 3.918-1.623l-.825-.825zM6.125 10.5c-1.16 0-2.273-.46-3.094-1.281l-.825.825a5.542 5.542 0 0 0 3.919 1.623V10.5zM3.03 9.219A4.375 4.375 0 0 1 1.75 6.125H.583c0 1.47.584 2.88 1.623 3.919l.825-.825zM1.75 6.125c0-1.16.46-2.273 1.281-3.094l-.825-.825A5.542 5.542 0 0 0 .583 6.125H1.75zM3.03 3.031A4.375 4.375 0 0 1 6.125 1.75V.583c-1.47 0-2.88.584-3.919 1.623l.825.825zM6.125 1.75c1.16 0 2.273.461 3.093 1.281l.825-.825A5.542 5.542 0 0 0 6.125.583V1.75zm3.093 1.281A4.375 4.375 0 0 1 10.5 6.125h1.166c0-1.47-.583-2.88-1.623-3.919l-.825.825zm.002 7.01l1.309 1.31.825-.824-1.308-1.31-.826.824zm1.309 1.31l3.558 3.561.825-.824-3.558-3.561-.825.825z" fill="#fff"/>
        </symbol>
        <symbol id="icon-info" fill="none" viewBox="0 0 10 11">
            <path d="M10 5.5a5 5 0 1 0-10 0 5 5 0 0 0 10 0zM5 9.611A4.111 4.111 0 1 1 5 1.39a4.111 4.111 0 0 1 0 8.222z" fill="#69696D"/>
            <path d="M5.001 3.59a.442.442 0 1 0 0-.886.442.442 0 0 0 0 .885zM5.782 7.639c-.153-.05-.34-.193-.34-.604V4.341a.073.073 0 0 0-.073-.073H4.295a.274.274 0 0 0-.078.536c.153.05.34.193.34.603v1.628c0 .41-.187.555-.34.604a.277.277 0 0 0-.175.367.274.274 0 0 0 .253.169h1.41a.274.274 0 0 0 .077-.536z" fill="#69696D"/>
        </symbol>
        <symbol id="icon-menu" fill="none" viewBox="0 0 482 381">
            <path d="M33.602 0C15.043 0 0 15.043 0 33.602c0 18.555 15.043 33.602 33.602 33.602h414.4c18.559 0 33.602-15.043 33.602-33.602C481.604 15.043 466.561 0 448.002 0h-414.4zm0 156.8C15.043 156.8 0 171.843 0 190.402c0 18.555 15.043 33.602 33.602 33.602h414.4c18.559 0 33.602-15.043 33.602-33.602 0-18.559-15.043-33.602-33.602-33.602h-414.4zm0 156.8C15.043 313.6 0 328.643 0 347.202c0 18.555 15.043 33.602 33.602 33.602h414.4c18.559 0 33.602-15.043 33.602-33.602 0-18.559-15.043-33.602-33.602-33.602h-414.4z" fill="#fff"/>
        </symbol>
        <symbol id="icon-telegram-plane" viewBox="0 0 32 32">
            <path d="M27.919 6.162l-4.225 19.925c-0.319 1.406-1.15 1.756-2.331 1.094l-6.438-4.744-3.106 2.988c-0.344 0.344-0.631 0.631-1.294 0.631l0.463-6.556 11.931-10.781c0.519-0.463-0.113-0.719-0.806-0.256l-14.75 9.287-6.35-1.988c-1.381-0.431-1.406-1.381 0.288-2.044l24.837-9.569c1.15-0.431 2.156 0.256 1.781 2.013z"></path>
        </symbol>
        <symbol id="icon-twitter-logo" viewBox="0 0 32 32">
            <path d="M32 6.079c-1.178 0.522-2.442 0.876-3.769 1.034 1.356-0.812 2.394-2.1 2.885-3.629-1.272 0.752-2.675 1.298-4.171 1.594-1.198-1.278-2.901-2.074-4.791-2.074-3.625 0-6.565 2.939-6.565 6.563 0 0.514 0.058 1.016 0.17 1.496-5.455-0.274-10.292-2.887-13.529-6.859-0.566 0.968-0.888 2.096-0.888 3.299 0 2.278 1.16 4.287 2.919 5.463-1.076-0.036-2.088-0.332-2.973-0.824v0.082c0 3.179 2.264 5.833 5.265 6.437-0.55 0.148-1.13 0.23-1.73 0.23-0.424 0-0.834-0.042-1.236-0.122 0.836 2.61 3.259 4.507 6.131 4.559-2.246 1.76-5.077 2.805-8.152 2.805-0.53 0-1.052-0.032-1.566-0.090 2.905 1.866 6.355 2.953 10.062 2.953 12.076 0 18.677-10.002 18.677-18.677l-0.022-0.85c1.29-0.92 2.405-2.076 3.283-3.391z"></path>
        </symbol>
        <symbol id="icon-medium-m" viewBox="0 0 32 32">
            <path d="M4.469 8.894c0.037-0.369-0.106-0.738-0.381-0.987l-2.819-3.4v-0.506h8.762l6.775 14.856 5.956-14.856h8.356v0.506l-2.413 2.313c-0.206 0.156-0.313 0.419-0.269 0.675v17c-0.044 0.256 0.063 0.519 0.269 0.675l2.356 2.313v0.506h-11.856v-0.506l2.444-2.369c0.238-0.238 0.238-0.313 0.238-0.675v-13.738l-6.794 17.244h-0.919l-7.9-17.244v11.556c-0.069 0.488 0.094 0.975 0.438 1.325l3.175 3.85v0.506h-9v-0.5l3.175-3.856c0.338-0.35 0.494-0.844 0.406-1.325v-13.363z"></path>
        </symbol>
        <symbol id="icon-copy" viewBox="0 0 13 16">
            <path d="M12.218 0H2.473a.145.145 0 0 0-.146.143v1c0 .078.066.143.146.143h9.018V13.57c0 .079.065.143.145.143h1.019c.08 0 .145-.064.145-.143v-13A.576.576 0 0 0 12.218 0zM9.891 2.286H.58A.576.576 0 0 0 0 2.857v9.477c0 .152.062.296.17.404l3.152 3.094c.04.04.085.072.134.098v.034h.077c.063.024.13.036.2.036H9.89a.576.576 0 0 0 .582-.571V2.857a.576.576 0 0 0-.582-.571zm-6.436 11.86l-1.566-1.539h1.566v1.54zm5.709.568H4.618V12.18a.72.72 0 0 0-.727-.715H1.309V3.571h7.855v11.143z" fill="#D8D8D8"/>
        </symbol>
    </defs>
</svg>